<svg viewBox="0 0 291.118 85.039" version="1.1" xmlns="http://www.w3.org/2000/svg" id="Ebene_1">
  
  <path style="fill: #000;" d="M91.221,42.671c0,3.66-2.344,5.954-5.564,5.954h-7.859v-11.568h7.81c3.319,0,5.614,2.684,5.614,5.614M113.674,42.329c0-15.815-11.374-23.674-27.97-23.674h-30.995v66.384h23.185v-20.354h4.589l10.034,20.354h24.504l-13.647-24.358c6.004-3.563,10.3-9.908,10.3-18.353"></path>
  <polygon style="fill: #000;" points="149.961 18.655 149.961 38.668 166.068 38.668 166.068 85.039 189.304 85.039 189.304 38.668 205.362 38.668 205.362 18.655 149.961 18.655"></polygon>
  <rect style="fill: #000;" height="66.343" width="23.332" y="6.123" x="119.629"></rect>
  <path style="fill: #000;" d="M271.203,72.456h19.915v-16.157h-19.915v16.157ZM271.203,51.336h19.915V6.126h-19.915v45.21Z"></path>
  <polygon style="fill: #000;" points="205.362 0 205.362 18.655 233.201 18.655 205.362 51.008 205.509 66.384 262.765 66.384 262.765 47.543 234.161 47.543 262.033 15.034 262.081 0 205.362 0"></polygon>
  <path style="fill: #000;" d="M0,0h51.527v18.655l-28.194-.009v8.981h22.7v17.637h-22.7v21.12H0V0Z"></path>
</svg>