<svg width="96" height="96" viewBox="0 0 96 96" fill="none" xmlns="http://www.w3.org/2000/svg">
  <defs>
    <linearGradient id="cloudAccent" x1="18" y1="24" x2="78" y2="80" gradientUnits="userSpaceOnUse">
      <stop stop-color="#B341FF"/>
      <stop offset="1" stop-color="#00E4FF"/>
    </linearGradient>
  </defs>
  <path d="M28 62C19.7157 62 13 55.2843 13 47C13 39.6406 18.2974 33.5182 25.2844 32.2308C28.1276 23.9017 35.962 18 45.1765 18C55.4643 18 64.0277 25.3576 65.8907 35.1005C73.1893 35.765 79 41.8985 79 49.375C79 57.2601 72.6351 63.625 64.75 63.625H28Z" fill="#101726" stroke="white" stroke-width="5" stroke-linejoin="round"/>
  <path d="M30 69L24 78" stroke="url(#cloudAccent)" stroke-width="5" stroke-linecap="round"/>
  <path d="M48 65V80" stroke="url(#cloudAccent)" stroke-width="5" stroke-linecap="round"/>
  <path d="M66 69L72 78" stroke="url(#cloudAccent)" stroke-width="5" stroke-linecap="round"/>
  <circle cx="24" cy="82" r="5" fill="#00E4FF"/>
  <circle cx="48" cy="84" r="5" fill="#B341FF"/>
  <circle cx="72" cy="82" r="5" fill="#00E4FF"/>
</svg>
